<?xml version="1.0" encoding="utf-8"?>
<!-- Generator: Adobe Illustrator 18.1.1, SVG Export Plug-In . SVG Version: 6.00 Build 0)  -->
<svg version="1.1" id="Layer_1" xmlns="http://www.w3.org/2000/svg" xmlns:xlink="http://www.w3.org/1999/xlink" x="0px" y="0px"
	 viewBox="0 0 500 500" enable-background="new 0 0 500 500" xml:space="preserve">
<g>
	<circle fill="#0399FF" cx="250" cy="250" r="250"/>
</g>
<g id="Layer_2">
</g>
<g>
	<path fill="#FFFFFF" d="M350,148H148c-18.6,0-33.7,15.1-33.7,33.7v134.6c0,18.6,15.1,33.7,33.7,33.7H350
		c18.6,0,33.7-15.1,33.7-33.7V181.7C383.6,163.1,368.5,148,350,148z M294.6,237.8l71.2-61c0.5,1.6,1,3.2,1,4.9v134.6
		c0,1.2-0.4,2.2-0.7,3.3L294.6,237.8z M350,164.9c1.1,0,2.1,0.4,3.2,0.6L249,254.8l-104.1-89.2c1.1-0.2,2-0.6,3.2-0.6H350z
		 M131.9,319.6c-0.2-1.1-0.7-2.1-0.7-3.3V181.7c0-1.7,0.5-3.3,1-4.9l71.2,61L131.9,319.6z M148,333.1c-1.7,0-3.2-0.5-4.8-1l73-83.4
		l27.3,23.4c1.6,1.4,3.5,2,5.5,2s3.9-0.7,5.5-2l27.3-23.4l73,83.4c-1.5,0.5-3.1,1-4.8,1H148z"/>
</g>
</svg>
